<svg width="24" height="24" viewBox="0 0 24 24" fill="none" xmlns="http://www.w3.org/2000/svg">
<g clip-path="url(#clip0_2_7)">
<path d="M0.731827 3C0.397894 3 0.18029 3.35091 0.328731 3.65004L6.76432 16.6184C7.13054 17.3564 7.8833 17.8232 8.70721 17.8232H13.1703C13.5042 17.8232 13.7218 17.4723 13.5734 17.1732L7.13679 4.20281C6.77119 3.46602 6.01965 3 5.19713 3H0.731827Z" fill="url(#paint0_linear_2_7)"/>
<path d="M23.6963 3.65004C23.8447 3.35091 23.6271 3 23.2932 3H18.8279C18.0054 3 17.2538 3.46602 16.8882 4.20281L8.87523 20.3498C8.72681 20.6489 8.94441 20.9998 9.27835 20.9998H13.7437C14.5662 20.9998 15.3177 20.5338 15.6833 19.7969L23.6963 3.65004Z" fill="white"/>
<path d="M11.5164 7.02338C11.7695 7.50788 12.4629 7.50788 12.716 7.02338L14.3005 3.99C14.5359 3.53947 14.2091 3 13.7008 3H10.5316C10.0233 3 9.69647 3.53947 9.93182 3.99L11.5164 7.02338Z" fill="white"/>
</g>
<defs>
<linearGradient id="paint0_linear_2_7" x1="0.45" y1="1.2" x2="16.4302" y2="14.1187" gradientUnits="userSpaceOnUse">
<stop stop-color="#37DBFF"/>
<stop offset="1" stop-color="#5743EE"/>
</linearGradient>
<clipPath id="clip0_2_7">
<rect width="24" height="18" fill="white" transform="translate(0 3)"/>
</clipPath>
</defs>
</svg>
