<svg width="320" height="320" viewBox="0 0 320 320" fill="none" xmlns="http://www.w3.org/2000/svg">
<g clip-path="url(#clip0_1_27)">
<path d="M159.771 309.23C242.509 309.23 309.582 242.157 309.582 159.419C309.582 76.6806 242.509 9.60797 159.771 9.60797C77.0327 9.60797 9.95999 76.6806 9.95999 159.419C9.95999 242.157 77.0327 309.23 159.771 309.23Z" fill="#2EA404"/>
<path d="M159.771 309.23C242.509 309.23 309.582 242.157 309.582 159.419C309.582 76.6806 242.509 9.60797 159.771 9.60797C77.0327 9.60797 9.95999 76.6806 9.95999 159.419C9.95999 242.157 77.0327 309.23 159.771 309.23Z" fill="white"/>
<path d="M159.771 309.23C242.509 309.23 309.582 242.157 309.582 159.419C309.582 76.6806 242.509 9.60797 159.771 9.60797C77.0327 9.60797 9.95999 76.6806 9.95999 159.419C9.95999 242.157 77.0327 309.23 159.771 309.23Z" stroke="#141A43" stroke-width="15.11"/>
<path fill-rule="evenodd" clip-rule="evenodd" d="M138.457 38.9088C138.457 36.4186 136.214 34.5228 133.776 35.0297C76.076 47.0267 32.721 98.1598 32.721 159.419C32.721 220.678 76.076 271.811 133.776 283.808C136.214 284.315 138.457 282.419 138.457 279.929C138.457 277.983 137.059 276.322 135.154 275.922C81.216 264.581 40.721 216.729 40.721 159.419C40.721 102.109 81.216 54.2569 135.154 42.9163C137.059 42.5159 138.457 40.8551 138.457 38.9088ZM182.418 279.643C182.418 277.713 183.793 276.062 185.677 275.644C238.97 263.818 278.823 216.272 278.823 159.419C278.823 102.566 238.97 55.0203 185.677 43.1944C183.793 42.7764 182.418 41.1246 182.418 39.1948C182.418 36.6863 184.691 34.7855 187.141 35.3234C244.154 47.8407 286.823 98.647 286.823 159.419C286.823 220.191 244.154 270.997 187.141 283.515C184.691 284.053 182.418 282.152 182.418 279.643Z" fill="#141A43"/>
<path d="M160 108L201.569 195.35H118.431L160 108Z" stroke="#141A43" stroke-width="9" stroke-linejoin="round"/>
<path d="M203.557 150.441H116.058" stroke="#141A43" stroke-width="9" stroke-linecap="round" stroke-linejoin="round"/>
<path d="M203.557 168.343H116.058" stroke="#141A43" stroke-width="9" stroke-linecap="round" stroke-linejoin="round"/>
</g>
<defs>
<clipPath id="clip0_1_27">
<rect width="316" height="315" fill="white" transform="translate(2 2)"/>
</clipPath>
</defs>
</svg>
